Coordinates
version=1
nRows=22
nColumns=24
inDegrees=yes

Units are S.I. units (second, meters, Newtons, ...)
Angles are in degrees.

endheader
time	pelvis_tilt	pelvis_list	pelvis_rotation	pelvis_tx	pelvis_ty	pelvis_tz	hip_flexion_r	hip_adduction_r	hip_rotation_r	knee_angle_r	ankle_angle_r	subtalar_angle_r	mtp_angle_r	hip_flexion_l	hip_adduction_l	hip_rotation_l	knee_angle_l	ankle_angle_l	subtalar_angle_l	mtp_angle_l	lumbar_extension	lumbar_bending	lumbar_rotation
      1.15000000	     -1.13734690	      1.99172255	     -8.79777243	      0.01969035	      0.98840045	      0.30792963	    -14.86746337	     -1.55853135	      1.09048216	    -13.45848665	      9.47569640	      1.28336202	     14.65766189	     22.39436079	      1.12518473	    -14.44212808	      1.44627070	      0.25279191	     -3.35104273	      9.35159918	     -3.87239677	     -2.43445779	     14.88268797
      1.15416667	     -1.09233808	      2.16426934	     -8.86915953	      0.02610707	      0.98816507	      0.30775259	    -14.94282731	     -1.83916347	      1.09332242	    -14.07457338	      9.21465406	      1.26943611	     17.95607542	     22.32520602	      1.33253704	    -14.07356156	      0.93503133	     -0.07519968	     -3.93799343	     10.51337780	     -3.82206903	     -2.68592094	     14.94272391
      1.15833333	     -1.04712329	      2.36230759	     -8.96904572	      0.03256713	      0.98798147	      0.30756482	    -14.97842803	     -2.16307011	      1.06568448	    -14.75584214	      8.93834236	      1.41880452	     18.00356430	     22.24540609	      1.56227494	    -13.74447207	      0.42873872	     -0.47712339	     -4.53685174	     10.53197441	     -3.76181318	     -2.94077447	     15.13989626
      1.16250000	     -1.01038951	      2.55729064	     -9.05193541	      0.03903726	      0.98781854	      0.30736344	    -14.98960161	     -2.47243598	      1.05797565	    -15.46814362	      8.64112797	      1.49613933	     18.09622270	     22.17137043	      1.79458279	    -13.34882125	     -0.08208991	     -0.90944234	     -5.20045893	     10.55830144	     -3.68941634	     -3.19999746	     15.26355842
      1.16666667	     -0.95493798	      2.76224934	     -9.12823304	      0.04552808	      0.98771473	      0.30713999	    -14.99950287	     -2.79427107	      1.03460362	    -16.21529634	      8.30669844	      1.57278859	     18.24225258	     22.07694871	      2.04425829	    -12.95434884	     -0.59967034	     -1.36671781	     -5.86073657	     10.58976617	     -3.63713932	     -3.47534365	     15.38123686
      1.17083333	     -0.90118021	      2.97085130	     -9.20995298	      0.05203197	      0.98765138	      0.30690689	    -14.97473729	     -3.12242395	      1.00830320	    -17.01779316	      7.93627563	      1.64007553	     18.42722542	     21.98059136	      2.29621425	    -12.58366002	     -1.11570528	     -1.85666688	     -6.49559450	     10.62088072	     -3.57370320	     -3.74953444	     15.48862048
      1.17500000	     -0.85938531	      3.18519376	     -9.28414214	      0.05855001	      0.98761128	      0.30665301	    -14.91035436	     -3.45213209	      0.98488876	    -17.86549351	      7.52158167	      1.69618134	     18.65020810	     21.89777032	      2.55480931	    -12.22549244	     -1.63757395	     -2.35931190	     -7.11647249	     10.65009530	     -3.49694455	     -4.02841099	     15.58834543
      1.17916667	     -0.79998033	      3.40616715	     -9.35602705	      0.06507348	      0.98763017	      0.30638015	    -14.83529439	     -3.79332599	      0.94742366	    -18.76048906	      7.06767952	      1.75531178	     18.91055103	     21.79466066	      2.82462661	    -11.88684791	     -2.15813835	     -2.86436646	     -7.71196233	     10.67467084	     -3.43643893	     -4.31319812	     15.67842722
      1.18333333	     -0.74678067	      3.62645500	     -9.40852589	      0.07159298	      0.98768042	      0.30607226	    -14.73246677	     -4.12645220	      0.90401049	    -19.68934188	      6.57697310	      1.80896728	     19.26714546	     21.71329744	      3.09680982	    -11.56130364	     -2.71544569	     -3.35080424	     -8.33729754	     10.69871571	     -3.37306260	     -4.60630120	     15.76130858
      1.18750000	     -0.70600478	      3.85151654	     -9.46891739	      0.07811107	      0.98775958	      0.30575679	    -14.57176705	     -4.46709797	      0.86361456	    -20.69025291	      6.04122355	      1.85300525	     19.69633170	     21.63736950	      3.36900245	    -11.27680308	     -3.25723104	     -3.82973416	     -8.88911699	     10.71446897	     -3.28987344	     -4.89294158	     15.83539550
      1.19166667	     -0.55330139	      4.07281002	     -9.53368062	      0.08462249	      0.98805032	      0.30544909	    -14.52582075	     -4.81530360	      0.86293551	    -21.67692338	      5.34469238	      1.68133384	     23.05118876	     21.41172461	      3.66212195	    -10.98649655	     -3.73794246	     -4.30532118	     -9.46524698	     10.75997704	     -3.34833471	     -5.19455686	     15.80750775
      1.19583333	     -0.57340674	      4.30567224	     -9.57482713	      0.09113395	      0.98810102	      0.30506446	    -14.21363295	     -5.16192705	      0.76815745	    -22.82818656	      4.77521760	      1.84285287	     23.15268654	     21.42769805	      3.92532986	    -10.85852933	     -4.33925334	     -4.66330735	     -9.67464010	     10.75163276	     -3.17391425	     -5.46258128	     15.88154348
      1.20000000	     -0.50665951	      4.53544369	     -9.61658262	      0.09760638	      0.98831525	      0.30468747	    -13.97910109	     -5.51100641	      0.71750547	    -23.98983642	      4.12795595	      1.87551970	     23.29841382	     21.32523102	      4.20882189	    -10.67728045	     -4.88502654	     -5.04833880	    -10.06346709	     10.73318249	     -3.11921423	     -5.75008562	     15.92397350
      1.20416667	     -0.45149936	      4.75338066	     -9.63230373	      0.10404659	      0.98855066	      0.30426026	    -13.70810383	     -5.83942087	      0.66320686	    -25.18886020	      3.43030707	      1.90572346	     23.65203724	     21.23687327	      4.49051370	    -10.43303171	     -5.44301695	     -5.36122508	    -10.55138985	     10.68125373	     -3.06647456	     -6.03057533	     15.95359363
      1.20833333	     -0.34953827	      4.98088134	     -9.65910449	      0.11047235	      0.98888509	      0.30386940	    -13.45876293	     -6.18287663	      0.63868240	    -26.42190458	      2.68232378	      1.86568210	     23.74441160	     21.10714946	      4.77245679	    -10.38013981	     -6.01456218	     -5.64039265	    -10.69005289	     10.66183736	     -3.06626334	     -6.33649736	     15.92097476
      1.21250000	     -0.28400747	      5.20739427	     -9.66250410	      0.11684708	      0.98917725	      0.30338529	    -13.11528114	     -6.53117208	      0.54910019	    -27.75012739	      1.95389652	      1.85949878	     26.90952073	     20.99800140	      5.07151038	    -10.18367407	     -6.54468778	     -5.91947013	    -11.10210284	      9.98642848	     -3.02352551	     -6.61038951	     15.87027846
      1.21666667	     -0.17179892	      5.40008558	     -9.66023592	      0.12317540	      0.98958264	      0.30293289	    -12.81862031	     -6.83340378	      0.52345470	    -29.07254923	      1.14786966	      1.79719964	     26.90936066	     20.85931346	      5.32838376	    -10.14115366	     -7.13438558	     -6.05658309	    -11.21718007	      9.97982050	     -3.05313898	     -6.85146823	     15.84723167
      1.22083333	     -0.15104557	      5.62365716	     -9.67082684	      0.12947755	      0.98986998	      0.30245875	    -12.35361123	     -7.16531942	      0.51360084	    -30.50641606	      0.40863479	      1.80756632	     26.93408226	     20.78403038	      5.61041697	    -10.02146313	     -7.63712799	     -6.27817843	    -11.47489818	      9.95163644	     -2.95216284	     -7.11161825	     15.80947545
      1.22500000	     -0.02567080	      5.81505514	     -9.64387890	      0.13571196	      0.99032107	      0.30196046	    -12.00876104	     -7.46375356	      0.48394505	    -31.91941801	     -0.39594400	      1.73679446	     26.93884543	     20.61750572	      5.88289945	     -9.94942721	     -8.19784386	     -6.33386874	    -11.61056377	      9.93788928	     -3.00863614	     -7.37771429	     15.75995222
      1.22916667	     -0.00399648	      6.02895064	     -9.62919058	      0.14191222	      0.99064405	      0.30145088	    -11.49032176	     -7.77593209	      0.48957021	    -33.42433580	     -1.13437742	      1.70189819	     26.95699409	     20.53112143	      6.16672122	     -9.82871752	     -8.68068087	     -6.48231617	    -11.85196847	      9.89009155	     -2.93230093	     -7.61623900	     15.66893919
      1.23333333	      0.07333723	      6.22462076	     -9.59730216	      0.14805124	      0.99105664	      0.30093216	    -11.02167244	     -8.06879529	      0.49382997	    -34.93452062	     -1.89047342	      1.62164240	     26.95645771	     20.38520713	      6.44645962	     -9.72424890	     -9.17148466	     -6.53279014	    -12.02915592	      9.83228857	     -2.93486860	     -7.86182761	     15.57701258
      1.23750000	      0.17152634	      6.41504816	     -9.56615339	      0.15415554	      0.99151977	      0.30042354	    -10.55660738	     -8.35420141	      0.51836514	    -36.45594568	     -2.64223606	      1.50778969	     26.93638463	     20.19925197	      6.72701451	     -9.63559804	     -9.62941060	     -6.51691962	    -12.13652436	      9.79528305	     -2.96520094	     -8.10650891	     15.48520861
